. 
 
 
http://www.torrentday.com :  Your Key To The Scene.


Now TvTeam with [No-RAR] Releases.



(((((((((((((= Enjoy No RAR releases =))))))))))))))))))))



...................................NFO:....................................

.
                                                     
                                                   
                                                         
                                                          
                                                           
                                                          
                                                          
                                                          
                                                           
                                                         
                                                          
                                                        
                                                      
                                     
                                                 
                                                   
                                             
                                              
                                                     
                                                      
                                                      
                                                      
                                                    
                                                     
                                                   
                                                     
                                                     
                                                      
                                                     
                                                      
                                                    
                 ARTiCHOKE                        
                                                
                      
                                                        
                                                      
                                                      
                                               
                                          
                                                   
                                            
                                                    
                                                       
                                                        
                                                      
                                                
                                                        
                                                 
                                              
                                                  
                                                
                                                  
                                        

      
                                
      SPRiNTER proudly presents...     
                                
      
 
 Disney.Parks.Disney.Cruise.Line.2010.DVDRip.XViD-SPRiNTER
 wwww.disneyvacations.com
 Subtitles: N/A

 Date: 2010.05


 Plot: 
 If you've been to the Disney theme parks but still haven't explored the 
 wonders of the Disney Cruise Line, this virtual behind-the-scenes tour 
 offers a sneak peek at what you're missing -- including Disney's private 
 destination island, Castaway Cay. Once you're aboard, you'll visit the ship's 
 amazing Animator's Palate restaurant, with a dcor that gradually changes from 
 black and white to color, among other highlights. 



      
                 
      Release notes     
                 
      

 Enjoy!


      
           
     Greetings    
           
      


NTX aAF FiCO HNR CiNEFiLE AEN HUMANiSM


      
           
      Details     
           
      


 General
Complete name                    : C:amp+baseDISNEY.CRUISEsprinter-xvid-discr.avi
Format                           : AVI
Format/Info                      : Audio Video Interleave
File size                        : 694 MiB
Duration                         : 49mn 6s
Overall bit rate                 : 1 976 Kbps
Writing application              : Nandub v1.0rc2
Writing library                  : Nandub build 1852/release

Video
ID                               : 0
Format                           : MPEG-4 Visual
Format profile                   : Advanced Simple@L5
Format settings, BVOP            : No
Format settings, QPel            : No
Format settings, GMC             : No warppoints
Format settings, Matrix          : Default (H.263)
Codec ID                         : XVID
Codec ID/Hint                    : XviD
Duration                         : 49mn 6s
Bit rate                         : 1 831 Kbps
Width                            : 512 pixels
Height                           : 384 pixels
Display aspect ratio             : 4:3
Frame rate                       : 29.970 fps
Resolution                       : 8 bits
Colorimetry                      : 4:2:0
Scan type                        : Progressive
Bits/(Pixel*Frame)               : 0.311
Stream size                      : 643 MiB (93%)
Writing library                  : XviD 1.1.2 (UTC 2006-11-01)

Audio
ID                               : 1
Format                           : MPEG Audio
Format version                   : Version 1
Format profile                   : Layer 3
Codec ID                         : 55
Codec ID/Hint                    : MP3
Duration                         : 49mn 6s
Bit rate mode                    : Variable
Bit rate                         : 131 Kbps
Minimum bit rate                 : 40.0 Kbps
Channel(s)                       : 2 channels
Sampling rate                    : 48.0 KHz
Stream size                      : 46.0 MiB (7%)
Alignment                        : Aligned on interleaves
Interleave, duration             : 24 ms (0.72 video frame)
Interleave, preload duration     : 234 ms
Writing library                  : LAME3.95 
Encoding settings                : -m s -V 6 -q 3 -lowpass 16 --vbr-old -b 40